<svg id="Layer_1" data-name="Layer 1" xmlns="http://www.w3.org/2000/svg" viewBox="0 0 606 606"><defs><style>.cls-1{fill:#fff;}</style></defs><path class="cls-1" d="M94.82,307.18V255.52h10v22.31l19-22.31h12.46l-20,22.64,21.65,29H125.57l-16.48-22.55-4.27,4.59v18Z"/><path class="cls-1" d="M163.12,254.7a27.61,27.61,0,0,1,10,1.77,21.71,21.71,0,0,1,7.91,5.16,24,24,0,0,1,5.21,8.37,32,32,0,0,1,1.88,11.43,30.72,30.72,0,0,1-1.92,11.24,24,24,0,0,1-5.33,8.32,23,23,0,0,1-8,5.21,27.47,27.47,0,0,1-10,1.8,28.25,28.25,0,0,1-10-1.72,21.66,21.66,0,0,1-7.91-5.08,23.67,23.67,0,0,1-5.21-8.33,32.21,32.21,0,0,1-1.88-11.44,31.08,31.08,0,0,1,1.92-11.27,24.54,24.54,0,0,1,5.33-8.41,22.81,22.81,0,0,1,8-5.24A27.3,27.3,0,0,1,163.12,254.7Zm-14.67,26.73a27.32,27.32,0,0,0,1.14,8.37,17,17,0,0,0,3.16,5.86,12.84,12.84,0,0,0,4.68,3.49,14.28,14.28,0,0,0,5.69,1.14,14,14,0,0,0,5.66-1.14,12.18,12.18,0,0,0,4.55-3.49,17.17,17.17,0,0,0,3-5.86,28,28,0,0,0,1.1-8.37,28.39,28.39,0,0,0-1.14-8.52,16.89,16.89,0,0,0-3.16-6,12.42,12.42,0,0,0-4.67-3.44,14.7,14.7,0,0,0-5.7-1.11,13.58,13.58,0,0,0-5.66,1.19,12.5,12.5,0,0,0-4.55,3.53,17,17,0,0,0-3,5.94A28.86,28.86,0,0,0,148.45,281.43Z"/><path class="cls-1" d="M200.76,255.52h12.71l8.2,25.75q1.07,3.36,2,6.68t1.68,6.52h.33c.22-.93.48-2,.78-3.07s.61-2.27.94-3.45.64-2.33,1-3.48.61-2.22.94-3.2l7.95-25.75H250l4.1,51.66h-9.59q-.66-8.44-1.19-16.85t-.7-16.85l-.24-8.12h-.25q-1.23,4.84-2.62,9.93t-2.79,9.26l-7.22,22.63h-8.12L214,284.55c-1.25-3.83-2.31-7.34-3.15-10.54s-1.57-6.08-2.18-8.65h-.16q-.16,6.4-.53,13.37t-.78,12.87l-.9,15.58h-9.43Z"/><path class="cls-1" d="M268.49,255.52H281.2l8.2,25.75q1.07,3.36,2,6.68t1.68,6.52h.33c.22-.93.48-2,.78-3.07s.62-2.27.94-3.45.65-2.33.95-3.48.61-2.22.94-3.2l8-25.75h12.71l4.1,51.66H312.2q-.66-8.44-1.19-16.85t-.7-16.85l-.24-8.12h-.25q-1.23,4.84-2.62,9.93t-2.79,9.26l-7.22,22.63h-8.11l-7.38-22.63q-1.89-5.74-3.16-10.54c-.85-3.19-1.57-6.08-2.17-8.65h-.17q-.17,6.4-.53,13.37t-.78,12.87l-.9,15.58h-9.43Z"/><path class="cls-1" d="M333,255.52h17.46a27.26,27.26,0,0,1,7.88,1.07,18.3,18.3,0,0,1,6.06,3.07,13.33,13.33,0,0,1,3.9,4.92,15.76,15.76,0,0,1,1.35,6.69,16.5,16.5,0,0,1-1.56,7.46,15,15,0,0,1-4.26,5.21,18,18,0,0,1-6.4,3.07,30.59,30.59,0,0,1-7.95,1H343v19.18H333Zm10,24.69h4.59a23.73,23.73,0,0,0,4.59-.42A10.88,10.88,0,0,0,356,278.4a7.06,7.06,0,0,0,2.5-2.62,9.55,9.55,0,0,0,.08-7.92,7.25,7.25,0,0,0-2.26-2.62,10,10,0,0,0-3.32-1.52,15.45,15.45,0,0,0-3.93-.49h-6Z"/><path class="cls-1" d="M377.63,255.52h10v30.92q0,7.13,2.66,10.45c1.78,2.22,4.64,3.32,8.57,3.32s6.7-1.19,8.45-3.56a15.2,15.2,0,0,0,2.62-9.23v-31.9h10v31.24q0,10.75-5.42,16T398.87,308a29,29,0,0,1-8.94-1.27A16.32,16.32,0,0,1,379.07,296a29.24,29.24,0,0,1-1.44-9.68Z"/><path class="cls-1" d="M466.36,255.52v8H451.19v43.62h-10V263.56H426.42v-8Z"/><path class="cls-1" d="M473.08,255.52h32.8v7.87h-22.8v13h20.67v7.79H483.08v15.09h23.05v7.87H473.08Z"/><path class="cls-1" d="M520.74,247.24v1.26h-4.35v12h-1.51v-12h-4.26v-1.26Z"/><path class="cls-1" d="M523.51,247.24h2l3.07,9.09c.11.32.24.68.37,1.09l.37,1.18h0l.35-1.15.36-1.12,3-9.09h2l1.26,13.22h-1.51l-.65-7.28c-.07-.74-.13-1.47-.18-2.2s-.09-1.45-.12-2.19h0c-.2.67-.41,1.39-.64,2.15s-.47,1.51-.7,2.24l-2.5,7.28h-1.37l-2.5-7.3c-.25-.74-.49-1.47-.71-2.18s-.43-1.44-.63-2.19h0c0,.67-.09,1.38-.15,2.14s-.12,1.51-.19,2.25l-.63,7.28h-1.47Z"/></svg>