<svg id="Layer_1" data-name="Layer 1" xmlns="http://www.w3.org/2000/svg" viewBox="0 0 606 606"><defs><style>.cls-1{fill:#fff;}</style></defs><path class="cls-1" d="M94.48,318.57h22v2.62H97.65v15.16h17.2V339H97.65v16.28h19v2.62H94.48Z"/><path class="cls-1" d="M124.18,318.57h3L144,344.39c.93,1.42,1.85,2.81,2.74,4.18s1.77,2.77,2.63,4.18h.12q-.12-2.37-.12-4.8V318.57h3.05v39.3h-3.05l-16.23-24.71q-1.65-2.49-3.14-5.11c-1-1.75-1.94-3.49-2.84-5.24h-.12q.18,5.81.18,11.6v23.46h-3Z"/><path class="cls-1" d="M187.32,318.57v2.62H174.08v36.68h-3.17V321.19h-13v-2.62Z"/><path class="cls-1" d="M192.75,318.57h22v2.62H195.92v15.16h17.2V339h-17.2v16.28h19v2.62H192.75Z"/><path class="cls-1" d="M222.45,318.57h11.23a15.73,15.73,0,0,1,5.27.81,10.79,10.79,0,0,1,3.82,2.24,9.51,9.51,0,0,1,2.32,3.44,12,12,0,0,1,.79,4.42,11.58,11.58,0,0,1-.7,4.09,11.43,11.43,0,0,1-1.86,3.24,11.24,11.24,0,0,1-2.69,2.37,11,11,0,0,1-3.17,1.41l10.74,17.28h-3.66l-10-16.66h-9.21v16.66h-2.87Zm2.87,20h7.08a14.42,14.42,0,0,0,4.08-.56,9.07,9.07,0,0,0,3.24-1.68,7.9,7.9,0,0,0,2.1-2.81,9.41,9.41,0,0,0,.76-3.93q0-4.5-2.56-6.46t-7.56-2h-7.14Z"/><path class="cls-1" d="M279,318.57v2.62H265.76v36.68h-3.17V321.19h-13v-2.62Z"/><path class="cls-1" d="M290.59,318.57h3.17l14.52,39.3h-3.41l-4.21-11.61H283.45l-4.2,11.61h-3.36Zm-6.16,25.07h15.19l-4.82-13.47c-.08-.25-.22-.69-.43-1.31s-.42-1.33-.67-2.12-.5-1.62-.76-2.5-.5-1.68-.7-2.43h-.12c-.21.75-.44,1.54-.7,2.37s-.53,1.63-.8,2.4-.51,1.47-.73,2.09-.4,1.13-.52,1.5Z"/><path class="cls-1" d="M317.92,318.57v39.3h-3.17v-39.3Z"/><path class="cls-1" d="M327.68,318.57h3.05l16.78,25.82c.93,1.42,1.85,2.81,2.74,4.18s1.77,2.77,2.62,4.18H353q-.12-2.37-.12-4.8V318.57h3.05v39.3h-3.05l-16.22-24.71q-1.65-2.49-3.14-5.11c-1-1.75-1.95-3.49-2.84-5.24h-.12q.18,5.81.18,11.6v23.46h-3.05Z"/><path class="cls-1" d="M368.67,318.57h4.15l9.76,28.88c.24.75.56,1.76.95,3s.74,2.44,1.06,3.52h.13c.28-1.08.61-2.26,1-3.52s.7-2.26.95-3l9.64-28.94h4.26l4,39.3h-3.17l-2.2-22.52q-.3-3.5-.61-6.89t-.49-6.9H398c-.57,2-1.22,4.17-1.95,6.65s-1.51,4.85-2.32,7.14L386,357.87h-2.87l-7.75-22.52q-2.31-6.74-4.21-13.79h-.12c-.16,2-.34,4.16-.52,6.61s-.37,4.85-.58,7.18l-2.19,22.52h-3.05Z"/><path class="cls-1" d="M413.32,318.57h22v2.62H416.5v15.16h17.2V339H416.5v16.28h19v2.62H413.32Z"/><path class="cls-1" d="M443,318.57h3.05l16.78,25.82c.93,1.42,1.85,2.81,2.74,4.18s1.77,2.77,2.63,4.18h.12c-.09-1.58-.12-3.18-.12-4.8V318.57h3v39.3h-3L452,333.16q-1.65-2.49-3.14-5.11c-1-1.75-1.95-3.49-2.84-5.24h-.12q.18,5.81.18,11.6v23.46H443Z"/><path class="cls-1" d="M506.17,318.57v2.62H492.93v36.68h-3.17V321.19h-13v-2.62Z"/></svg>