<svg id="Layer_1" data-name="Layer 1" xmlns="http://www.w3.org/2000/svg" viewBox="0 0 1014.31 369.61"><defs><style>.cls-1{fill:#fff;}.cls-2,.cls-3{fill:none;}.cls-3{stroke:#fff;stroke-miterlimit:10;stroke-width:3px;}</style></defs><rect width="1014.31" height="369.61"/><path class="cls-1" d="M136.49,132.11h2.73L167,196.72h-3.37l-9.47-22.3H121.58l-9.47,22.3h-3.46ZM153,171.69l-15.12-35.58-15.12,35.58Z"/><path class="cls-1" d="M165.19,132.11l26,60.69,25.93-60.69h3.37l-27.76,64.61h-3.09l-27.75-64.61Z"/><path class="cls-2" d="M781.9,176.27l12.74-.13Z"/><path class="cls-1" d="M284.32,135H260.11v61.7h-3.19V135h-24.2v-2.91h51.6Z"/><path class="cls-1" d="M320.35,197.17a27.06,27.06,0,0,1-12.28-2.77,30.49,30.49,0,0,1-9.56-7.42,34.62,34.62,0,0,1-6.1-34.9,33.72,33.72,0,0,1,6.42-10.46,31.2,31.2,0,0,1,9.65-7.28,27.86,27.86,0,0,1,24.16.13,29.92,29.92,0,0,1,9.51,7.56,36.29,36.29,0,0,1,6.14,10.55,33.59,33.59,0,0,1,2.18,11.83,34.2,34.2,0,0,1-8.64,22.89,30.32,30.32,0,0,1-9.6,7.23A27.15,27.15,0,0,1,320.35,197.17Zm-27-32.76a31.83,31.83,0,0,0,7.6,20.66,27,27,0,0,0,8.56,6.64,25.14,25.14,0,0,0,21.88-.09,26.83,26.83,0,0,0,8.56-6.82,32,32,0,0,0,5.46-9.56,31.87,31.87,0,0,0-.09-22,31.14,31.14,0,0,0-5.65-9.51,27.33,27.33,0,0,0-8.6-6.64,24.86,24.86,0,0,0-21.75.09,27,27,0,0,0-8.5,6.83,32.48,32.48,0,0,0-5.51,9.55A31,31,0,0,0,293.32,164.41Z"/><path class="cls-1" d="M423,196.72V138.48l-27.12,45.77H393.7l-27.12-45.77v58.24h-3.19V132.11h2.91l28.49,48,28.48-48h2.91v64.61Z"/><path class="cls-1" d="M464.22,132.11H467l27.76,64.61h-3.37l-9.47-22.3H449.3l-9.47,22.3h-3.46Zm16.49,39.58-15.13-35.58-15.12,35.58Z"/><path class="cls-1" d="M549.58,135H525.37v61.7h-3.18V135H498v-2.91h51.6Z"/><path class="cls-1" d="M560,196.72V132.11h3.19v64.61Z"/><path class="cls-1" d="M580.61,196.72V132.11h3.18v40.67l39.5-40.67h3.91L600,160.41l28.48,36.31h-3.73l-26.93-34.31-14,14.29v20Z"/><path class="cls-1" d="M637.66,196.72V132.11h3.19v40.67l39.49-40.67h3.92l-27.21,28.3,28.48,36.31H681.8l-26.94-34.31-14,14.29v20Z"/><path class="cls-1" d="M715.29,132.11H718l27.75,64.61H742.4l-9.47-22.3H700.37l-9.47,22.3h-3.46Zm16.48,39.58-15.12-35.58-15.12,35.58Z"/><path class="cls-1" d="M404.46,252.23v1.12H378.37V213.59H404v1.12H379.49v17.75h21.44v1.12H379.49v18.65Z"/><path class="cls-1" d="M414,215.77v37.58h-1.12V213.59h.84l30.41,38.13V213.59h1.12v39.76H444Z"/><path class="cls-1" d="M472.28,253.63a16.58,16.58,0,0,1-7.59-1.74,19,19,0,0,1-5.94-4.65,21.89,21.89,0,0,1-3.86-6.49,20.12,20.12,0,0,1-1.37-7.28,21.85,21.85,0,0,1,1.31-7.48,21.09,21.09,0,0,1,3.75-6.47,18.56,18.56,0,0,1,5.75-4.53,15.79,15.79,0,0,1,7.28-1.68q6.15,0,9.71,2.43a16.35,16.35,0,0,1,5.46,6.25l-1.06.33a13.93,13.93,0,0,0-5.85-6,17.93,17.93,0,0,0-8.26-1.84,15.14,15.14,0,0,0-7.06,1.62,16.63,16.63,0,0,0-5.35,4.37,20.51,20.51,0,0,0-3.39,6.13,21,21,0,0,0-1.17,6.92,18.89,18.89,0,0,0,1.37,7.16,20.33,20.33,0,0,0,3.78,6.11,17.91,17.91,0,0,0,5.6,4.23,15.73,15.73,0,0,0,6.89,1.54,16.4,16.4,0,0,0,7.84-2,24.13,24.13,0,0,0,7.17-6.36v1.57Q480.9,253.64,472.28,253.63Zm14.33-18.09h-9.35v-1.12h10.47v18.93h-1.12Z"/><path class="cls-1" d="M496.69,253.35V213.59h1.12v39.76Z"/><path class="cls-1" d="M510,215.77v37.58H508.9V213.59h.84l30.41,38.13V213.59h1.12v39.76H540Z"/><path class="cls-1" d="M578.45,252.23v1.12h-26.1V213.59H578v1.12H553.47v17.75h21.45v1.12H553.47v18.65Z"/><path class="cls-1" d="M613,252.23v1.12H586.91V213.59H612.5v1.12H588v17.75h21.44v1.12H588v18.65Z"/><path class="cls-1" d="M621.46,253.35V213.59h16.18a9.84,9.84,0,0,1,4.51,1,11.48,11.48,0,0,1,3.53,2.77,13.6,13.6,0,0,1,2.32,3.87,11.79,11.79,0,0,1,.84,4.37,13,13,0,0,1-1.29,5.74,12,12,0,0,1-3.55,4.39,9.67,9.67,0,0,1-5.29,2l10.08,15.63h-1.35l-10.08-15.63H622.58v15.63Zm1.12-16.75H638a8.46,8.46,0,0,0,5.18-1.59,10.71,10.71,0,0,0,3.34-4.12,12.34,12.34,0,0,0,1.17-5.26,11.3,11.3,0,0,0-5-9.38,8.93,8.93,0,0,0-5.1-1.54H622.58Z"/><path class="cls-1" d="M657.41,253.35V213.59h1.12v39.76Z"/><path class="cls-1" d="M670.74,215.77v37.58h-1.12V213.59h.84l30.41,38.13V213.59H702v39.76H700.7Z"/><path class="cls-1" d="M729,253.63a16.55,16.55,0,0,1-7.59-1.74,19,19,0,0,1-5.94-4.65,21.89,21.89,0,0,1-3.86-6.49,20.12,20.12,0,0,1-1.37-7.28,21.62,21.62,0,0,1,1.31-7.48,21.09,21.09,0,0,1,3.75-6.47A18.64,18.64,0,0,1,721,215a15.85,15.85,0,0,1,7.28-1.68q6.16,0,9.72,2.43a16.35,16.35,0,0,1,5.46,6.25l-1.06.33a13.9,13.9,0,0,0-5.86-6,17.88,17.88,0,0,0-8.26-1.84,15.13,15.13,0,0,0-7,1.62,16.53,16.53,0,0,0-5.35,4.37,20.3,20.3,0,0,0-3.39,6.13,21,21,0,0,0-1.17,6.92,18.89,18.89,0,0,0,1.37,7.16,20.33,20.33,0,0,0,3.78,6.11,17.91,17.91,0,0,0,5.6,4.23,15.73,15.73,0,0,0,6.89,1.54,16.4,16.4,0,0,0,7.84-2,24,24,0,0,0,7.16-6.36v1.57Q737.61,253.64,729,253.63Zm14.33-18.09H734v-1.12h10.47v18.93h-1.12Z"/><polygon class="cls-1" points="808.21 157.18 839.81 233.26 831.59 233.26 822.49 210.47 808.01 210.47 808.01 203.41 819.85 203.41 808.01 171.67 808.01 157.18 808.21 157.18"/><polygon class="cls-1" points="884.08 166.06 884.08 185.51 864.31 233.26 855.89 233.26 824.29 157.18 832.42 157.18 860.11 225.1 884.08 166.06"/><rect class="cls-1" x="808.01" y="203.41" width="14.47" height="7.06"/><circle class="cls-3" cx="845" cy="194.17" r="62.3"/><path class="cls-1" d="M910.75,124.46H906v13h-1v-13h-4.75v-1h10.5Zm13.85-.9h1.1v13.85h-1v-12l-4.9,9.85H919l-4.9-9.85v12h-1V123.56h1.05L919.35,134Z"/></svg>