<svg id="Layer_1" data-name="Layer 1" xmlns="http://www.w3.org/2000/svg" viewBox="0 0 867.38 153.66"><defs><style>.cls-1,.cls-3{fill:none;}.cls-2{fill:#fff;}.cls-3{stroke:#fff;stroke-miterlimit:10;stroke-width:3px;}</style></defs><path class="cls-1" d="M692.48,62.53l12.74-.13Z"/><path class="cls-2" d="M207.07,18.36h2.73L237.56,83h-3.37l-9.47-22.3H192.16L182.68,83h-3.46ZM223.56,58,208.44,22.37,193.32,58Z"/><path class="cls-2" d="M235.77,18.36l26,60.7,25.93-60.7h3.37L263.34,83h-3.09L232.49,18.36Z"/><path class="cls-2" d="M354.89,21.28h-24.2V83H327.5V21.28H303.3V18.36h51.59Z"/><path class="cls-2" d="M390.93,83.43a27,27,0,0,1-12.29-2.78,30.39,30.39,0,0,1-9.55-7.41,34.77,34.77,0,0,1-8.37-22.57,33.91,33.91,0,0,1,8.69-22.8,31.44,31.44,0,0,1,9.64-7.28,27.91,27.91,0,0,1,24.16.14,30,30,0,0,1,9.51,7.55,36.28,36.28,0,0,1,6.15,10.56,33.59,33.59,0,0,1,2.18,11.83,34.27,34.27,0,0,1-8.65,22.89,30.32,30.32,0,0,1-9.6,7.23A27.1,27.1,0,0,1,390.93,83.43Zm-27-32.76a31.69,31.69,0,0,0,7.6,20.66A27,27,0,0,0,380.05,78a25.17,25.17,0,0,0,21.89-.09,26.69,26.69,0,0,0,8.55-6.83,31.94,31.94,0,0,0,5.37-31.53A30.8,30.8,0,0,0,410.22,30a27.45,27.45,0,0,0-8.6-6.64,24.86,24.86,0,0,0-21.75.09,27,27,0,0,0-8.51,6.83,32.55,32.55,0,0,0-5.5,9.55A30.81,30.81,0,0,0,363.9,50.67Z"/><path class="cls-2" d="M493.58,83V24.74L466.46,70.51h-2.19L437.16,24.74V83H434V18.36h2.91l28.49,48.05,28.48-48h2.91V83Z"/><path class="cls-2" d="M534.8,18.36h2.73L565.28,83h-3.36l-9.48-22.3H519.88L510.41,83H507ZM551.28,58,536.16,22.37,521,58Z"/><path class="cls-2" d="M620.15,21.28H596V83h-3.19V21.28h-24.2V18.36h51.59Z"/><path class="cls-2" d="M630.53,83V18.36h3.18V83Z"/><path class="cls-2" d="M651.18,83V18.36h3.19V59l39.49-40.68h3.92L670.57,46.67,699.05,83h-3.73L668.38,48.67,654.37,63V83Z"/><path class="cls-2" d="M708.24,83V18.36h3.19V59l39.49-40.68h3.91L727.62,46.67,756.11,83h-3.73L725.44,48.67,711.43,63V83Z"/><path class="cls-2" d="M785.86,18.36h2.73L816.35,83H813l-9.47-22.3H771L761.48,83H758ZM802.35,58,787.23,22.37,772.11,58Z"/><path class="cls-2" d="M210,138.49v1.12h-26.1V99.85h25.6V101H185v17.75h21.45v1.12H185v18.65Z"/><path class="cls-2" d="M219.55,102v37.58h-1.12V99.85h.83L249.67,138V99.85h1.12v39.76h-1.28Z"/><path class="cls-2" d="M277.78,139.89a16.54,16.54,0,0,1-7.58-1.74,19,19,0,0,1-5.94-4.65A21.89,21.89,0,0,1,260.4,127a20.13,20.13,0,0,1-1.38-7.28,21.63,21.63,0,0,1,1.32-7.48,21.09,21.09,0,0,1,3.75-6.47,18.67,18.67,0,0,1,5.74-4.54,15.82,15.82,0,0,1,7.28-1.67q6.17,0,9.72,2.43a16.33,16.33,0,0,1,5.46,6.24l-1.07.34a13.83,13.83,0,0,0-5.85-6,17.91,17.91,0,0,0-8.26-1.84,15.13,15.13,0,0,0-7.05,1.62,16.53,16.53,0,0,0-5.35,4.37,20.08,20.08,0,0,0-3.39,6.13,21.05,21.05,0,0,0-1.18,6.92,18.89,18.89,0,0,0,1.38,7.16A20.45,20.45,0,0,0,265.3,133a17.91,17.91,0,0,0,5.6,4.23,15.69,15.69,0,0,0,6.88,1.54,16.34,16.34,0,0,0,7.84-2,23.89,23.89,0,0,0,7.17-6.36V132Q286.42,139.88,277.78,139.89Zm14.34-18.09h-9.35v-1.12h10.47v18.93h-1.12Z"/><path class="cls-2" d="M302.2,139.61V99.85h1.12v39.76Z"/><path class="cls-2" d="M315.53,102v37.58h-1.12V99.85h.84L345.65,138V99.85h1.12v39.76h-1.28Z"/><path class="cls-2" d="M384,138.49v1.12h-26.1V99.85h25.59V101H359v17.75h21.45v1.12H359v18.65Z"/><path class="cls-2" d="M418.51,138.49v1.12h-26.1V99.85H418V101H393.53v17.75H415v1.12H393.53v18.65Z"/><path class="cls-2" d="M427,139.61V99.85h16.18a9.87,9.87,0,0,1,4.51,1,11.32,11.32,0,0,1,3.52,2.77,13.63,13.63,0,0,1,2.33,3.87,11.79,11.79,0,0,1,.84,4.37,12.94,12.94,0,0,1-1.29,5.73,12.07,12.07,0,0,1-3.55,4.4,9.71,9.71,0,0,1-5.3,2l10.08,15.63H453L442.87,124H428.09v15.63Zm1.12-16.75h15.45a8.48,8.48,0,0,0,5.18-1.59,10.6,10.6,0,0,0,3.33-4.12,12.24,12.24,0,0,0,1.18-5.26,11.3,11.3,0,0,0-5-9.38,9,9,0,0,0-5.1-1.54H428.09Z"/><path class="cls-2" d="M462.92,139.61V99.85H464v39.76Z"/><path class="cls-2" d="M476.24,102v37.58h-1.12V99.85H476L506.37,138V99.85h1.12v39.76H506.2Z"/><path class="cls-2" d="M534.48,139.89a16.54,16.54,0,0,1-7.58-1.74A19,19,0,0,1,521,133.5,21.89,21.89,0,0,1,517.1,127a20.13,20.13,0,0,1-1.38-7.28,21.63,21.63,0,0,1,1.32-7.48,21.09,21.09,0,0,1,3.75-6.47,18.67,18.67,0,0,1,5.74-4.54,15.82,15.82,0,0,1,7.28-1.67q6.16,0,9.72,2.43a16.33,16.33,0,0,1,5.46,6.24l-1.07.34a13.83,13.83,0,0,0-5.85-6,17.91,17.91,0,0,0-8.26-1.84,15.13,15.13,0,0,0-7,1.62,16.42,16.42,0,0,0-5.35,4.37,20.08,20.08,0,0,0-3.39,6.13,21.05,21.05,0,0,0-1.18,6.92,18.89,18.89,0,0,0,1.38,7.16A20.45,20.45,0,0,0,522,133a17.91,17.91,0,0,0,5.6,4.23,15.69,15.69,0,0,0,6.88,1.54,16.34,16.34,0,0,0,7.84-2,23.89,23.89,0,0,0,7.17-6.36V132Q543.12,139.88,534.48,139.89Zm14.34-18.09h-9.35v-1.12h10.47v18.93h-1.12Z"/><polygon class="cls-2" points="48.79 43.44 80.39 119.52 72.17 119.52 63.07 96.73 48.59 96.73 48.59 89.67 60.42 89.67 48.59 57.93 48.59 43.44 48.79 43.44"/><polygon class="cls-2" points="124.66 52.32 124.66 71.77 104.89 119.52 96.47 119.52 64.87 43.44 73 43.44 100.69 111.36 124.66 52.32"/><rect class="cls-2" x="48.59" y="89.67" width="14.47" height="7.06"/><circle class="cls-3" cx="85.58" cy="80.43" r="62.3"/><path class="cls-2" d="M821.33,10.72h-4.75v13h-1V10.72h-4.75v-1h10.5Zm13.85-.9h1.1V23.67h-1v-12l-4.9,9.85h-.85l-4.9-9.85v12h-1V9.82h1l5.25,10.45Z"/></svg>